<svg xmlns="http://www.w3.org/2000/svg" x="0px" y="0px" width="100" height="100" viewBox="0 0 30 30">
<path d="M 15 3 C 8.4 3 3 8.4 3 15 C 3 21.6 8.4 27 15 27 C 21.6 27 27 21.6 27 15 C 27 12.8 26.400391 10.8 25.400391 9 L 14.099609 20.300781 C 13.899609 20.500781 13.700391 20.599609 13.400391 20.599609 C 13.100391 20.599609 12.899219 20.500781 12.699219 20.300781 L 8.1992188 15.800781 C 7.7992188 15.400781 7.7992187 14.800391 8.1992188 14.400391 C 8.5992187 14.000391 9.1996094 14.000391 9.5996094 14.400391 L 13.400391 18.199219 L 24.199219 7.3007812 C 21.999219 4.7007813 18.7 3 15 3 z M 24.199219 7.3007812 C 24.699219 7.8007813 25.100391 8.4 25.400391 9 L 27.699219 6.6992188 C 28.099219 6.2992188 28.099219 5.6992188 27.699219 5.1992188 C 27.299219 4.7992188 26.700781 4.7992187 26.300781 5.1992188 L 24.199219 7.3007812 z"></path>
</svg>